HIERARCHY
ROOT Hips
{
    OFFSET 0.0 0.0 0.0
    CHANNELS 6 Xposition Yposition Zposition Zrotation Xrotation Yrotation
    JOINT LeftHipJoint
    {
        OFFSET 0.1 0.0 0.0
        CHANNELS 3 Zrotation Xrotation Yrotation
        JOINT LeftUpLeg
        {
            OFFSET 127.48182853698688 0.0 0.0
            CHANNELS 3 Zrotation Xrotation Yrotation
            JOINT LeftLeg
            {
                OFFSET 0.0 0.0 -436.980628633612
                CHANNELS 3 Zrotation Xrotation Yrotation
                JOINT LeftFoot
                {
                    OFFSET 0.0 0.0 -398.6909455803926
                    CHANNELS 3 Zrotation Xrotation Yrotation
                    End Site
                    {
                        OFFSET 0.0 -0.1 0.0
                    }
                }
            }
        }
    }
    JOINT LowerBack
    {
        OFFSET 0.0 0.0 0.1
        CHANNELS 3 Zrotation Xrotation Yrotation
        JOINT Spine
        {
            OFFSET 0.0 0.0 220.14942536126648
            CHANNELS 3 Zrotation Xrotation Yrotation
            JOINT Spine1
            {
                OFFSET 0.0 0.0 250.28777350346496
                CHANNELS 3 Zrotation Xrotation Yrotation
                JOINT LeftShoulder
                {
                    OFFSET 0.1 0.0 0.0
                    CHANNELS 3 Zrotation Xrotation Yrotation
                    JOINT LeftArm
                    {
                        OFFSET 138.82094453276414 0.0 0.0
                        CHANNELS 3 Zrotation Xrotation Yrotation
                        JOINT LeftForeArm
                        {
                            OFFSET 274.51699223350215 0.0 0.0
                            CHANNELS 3 Zrotation Xrotation Yrotation
                            JOINT LeftHand
                            {
                                OFFSET 253.87455484701093 0.0 0.0
                                CHANNELS 3 Zrotation Xrotation Yrotation
                                End Site
                                {
                                    OFFSET 0.1 0.0 0.0
                                }
                            }
                        }
                    }
                }
                JOINT Neck
                {
                    OFFSET 0.0 0.0 0.1
                    CHANNELS 3 Zrotation Xrotation Yrotation
                    JOINT Neck1
                    {
                        OFFSET 0.0 0.0 101.90277194970729
                        CHANNELS 3 Zrotation Xrotation Yrotation
                        End Site
                        {
                            OFFSET 0.0 0.0 111.72001915485924
                        }
                    }
                }
                JOINT RightShoulder
                {
                    OFFSET -0.1 0.0 0.0
                    CHANNELS 3 Zrotation Xrotation Yrotation
                    JOINT RightArm
                    {
                        OFFSET -138.82094453276414 0.0 0.0
                        CHANNELS 3 Zrotation Xrotation Yrotation
                        JOINT RightForeArm
                        {
                            OFFSET -274.51699223350215 0.0 0.0
                            CHANNELS 3 Zrotation Xrotation Yrotation
                            JOINT RightHand
                            {
                                OFFSET -253.87455484701093 0.0 0.0
                                CHANNELS 3 Zrotation Xrotation Yrotation
                                End Site
                                {
                                    OFFSET -0.1 0.0 0.0
                                }
                            }
                        }
                    }
                }
            }
        }
    }
    JOINT RightHipJoint
    {
        OFFSET -0.1 0.0 0.0
        CHANNELS 3 Zrotation Xrotation Yrotation
        JOINT RightUpLeg
        {
            OFFSET -127.48182853698688 0.0 0.0
            CHANNELS 3 Zrotation Xrotation Yrotation
            JOINT RightLeg
            {
                OFFSET 0.0 0.0 -436.980628633612
                CHANNELS 3 Zrotation Xrotation Yrotation
                JOINT RightFoot
                {
                    OFFSET 0.0 0.0 -398.6909455803926
                    CHANNELS 3 Zrotation Xrotation Yrotation
                    End Site
                    {
                        OFFSET 0.0 -0.1 0.0
                    }
                }
            }
        }
    }
}
MOTION
Frames: 7
Frame Time: 0.03333333333333333
0.0 0.0 830.830662637835 31.394821938883222 -4.478754077864781 5.595366921661632 0.0 0.0 1.987846675914698e-16 -0.08283317161780382 -6.595969698633553 -0.7317993015621926 -0.0020276382516929994 23.712285033469286 -0.32808351000540525 -3.1805546814635168e-15 -1.5902773407317584e-15 -4.4139062980501586e-32 0.0 0.0 1.987846675914698e-16 0.10883142945782642 8.544540801671381 2.296195631323422 1.6552141382223267 7.735214295549055e-16 -1.5022144344390984e-15 0.0 0.0 -4.969616689786745e-16 -34.92186221330056 23.29756572693758 67.64582254329599 -115.1675058162054 1.8284770392240523e-14 1.0994723069869537e-14 0.0 0.0 -6.3611093629270335e-15 0.0 0.0 -4.969616689786745e-16 -20.476438524421475 -1.3253032684971724 -12.32305046760582 0.0 0.0 -4.969616689786745e-16 4.324499748742515 -42.14643039859368 -44.29427055245656 135.27923511705148 -5.214433621846828e-16 -7.092794740363701e-15 0.0 0.0 0.0 0.0 0.0 1.987846675914698e-16 -0.03236070899832357 -2.495974997077607 -4.5218473408177235 -1.4713954273011591 21.16244963497091 0.31571655643594265 0.0 0.0 0.0
0.0 0.0 830.830662637835 31.384756966263673 -4.326218109877969 5.576208295147285 1.3793457181406746e-33 -7.951386703658792e-16 1.987846675914698e-16 -0.08519311438442426 -6.783299059454785 -0.8520871962527177 -0.05495739725988399 23.800962223540605 -0.22169223239592029 -3.1805546814635168e-15 5.517382872562698e-32 -1.987846675914698e-15 1.3793457181406746e-33 -7.951386703658792e-16 1.987846675914698e-16 0.10905383101682697 8.56120311891503 2.2532066293932766 1.5936135821524429 1.2243831539147956e-15 2.2692162814713835e-15 0.0 0.0 -4.969616689786745e-16 -34.812029365107655 23.115238408201368 67.4915879341059 -115.15439724539488 -6.165391105849413e-16 7.927447889216361e-15 0.0 0.0 0.0 0.0 0.0 -4.969616689786745e-16 -20.3845898311405 -1.5605932919903036 -12.214744216690777 0.0 0.0 -4.969616689786745e-16 4.5502379472922465 -42.48768632845185 -44.11692815746041 135.17775381186001 5.151618401332317e-16 7.093253744747047e-15 0.0 0.0 0.0 1.3793457181406746e-33 -7.951386703658792e-16 1.987846675914698e-16 -0.03327964917011336 -2.5651327709428786 -4.704398784787987 -1.538285025208258 21.111299818529666 0.3666286039445614 -6.896728590703373e-34 1.9878466759146985e-16 3.975693351829397e-16
0.0 0.0 830.830662637835 31.512240370980784 -4.362539673076794 5.539552989461071 0.0 0.0 1.987846675914698e-16 -0.08668753438056494 -6.684380490242652 -1.0056380393930775 -0.11108581967746337 23.62160777686361 -0.13380683106144156 0.0 0.0 -3.975693351829396e-16 0.0 0.0 1.987846675914698e-16 0.11260262018386338 8.554784290163559 2.28633717293275 1.5187821773030885 -1.2242183279825779e-15 -2.3693989571055246e-15 0.0 0.0 -1.5902773407317584e-15 -34.81574828845223 23.21565827415626 67.37680784777199 -115.22878005054021 -1.3429295367849662e-15 8.517759562674851e-16 6.3611093629270335e-15 0.0 0.0 0.0 0.0 -1.5902773407317584e-15 -20.329829773353342 -1.6184301585878635 -12.136154123867916 0.0 0.0 -1.5902773407317584e-15 4.623753494625015 -42.36130789838797 -44.0111099046496 135.18833572350232 8.305520625861898e-15 -3.456262690771426e-15 0.0 0.0 0.0 0.0 0.0 1.987846675914698e-16 -0.03216810317016296 -2.392698778106937 -4.841572076359738 -1.571745724658595 20.984190663046295 0.4259794525150019 0.0 0.0 -7.951386703658792e-16
0.0 0.0 830.830662637835 31.596509386471713 -4.440073467890997 5.4782088417020836 0.0 0.0 0.0 -0.08116255725378695 -6.563557201069355 -1.0974303507678822 -0.1643756818336171 23.369577647172466 -0.04097933268304827 0.0 0.0 0.0 0.0 0.0 0.0 0.10815671116778648 8.609352080174455 2.3501307430653644 1.4808863311426783 -8.014944158377886e-16 -4.866447440650416e-16 0.0 0.0 5.963540027744094e-16 -34.6374657432452 23.234426775509505 67.29013351804045 -115.481087754912 8.774475008203564e-15 1.9839387552661517e-15 0.0 0.0 0.0 0.0 0.0 5.963540027744094e-16 -20.21249772327949 -1.6484623278486406 -12.133755771721423 0.0 0.0 5.963540027744094e-16 4.621595789014099 -42.13699159711882 -44.00332050441433 135.18383776958134 -6.911873358750226e-15 -1.661131256973821e-14 0.0 0.0 0.0 0.0 0.0 0.0 -0.02828530742705948 -2.1970708845675437 -4.976850626656139 -1.6233166342949434 20.822143708555558 0.6140768015843769 0.0 0.0 -7.951386703658792e-16
0.0 0.0 830.830662637835 31.75926514791543 -4.4320624075685195 5.473622469727205 0.0 0.0 -1.987846675914698e-16 -0.08410336916608624 -6.677242516311686 -1.2579869557163037 -0.22748905524292337 23.306012558177052 0.03531383312222379 0.0 0.0 -7.951386703658792e-16 0.0 0.0 -1.987846675914698e-16 0.11121518744342422 8.697440327967756 2.331755170555206 1.4557762303264294 -4.7980724200091755e-17 -3.776603905518436e-15 0.0 0.0 2.981770013872047e-16 -34.466875489349206 23.224705363261528 67.30797317239124 -115.70672058803763 1.823283208066082e-14 1.1080640685380184e-14 0.0 0.0 0.0 0.0 0.0 2.981770013872047e-16 -20.104758470652 -1.8355433118736062 -12.12179808485465 0.0 0.0 2.981770013872047e-16 4.333863283979582 -41.912983639188475 -44.10650447807758 135.2446860655168 5.882083257302994e-15 2.421736748962152e-15 0.0 0.0 0.0 0.0 0.0 -1.987846675914698e-16 -0.027573942618204794 -2.1053135050751797 -5.16472187635904 -1.663856315993552 20.52289399332301 0.8412265516320709 0.0 0.0 7.951386703658792e-16
0.0 0.0 830.830662637835 31.928331714519647 -4.466942781689204 5.607661863898559 0.0 0.0 -1.987846675914698e-16 -0.09564178777053801 -6.672971570686043 -1.6041552938619796 -0.33103402396628745 23.116779845316987 0.21441225338542816 0.0 0.0 7.951386703658792e-16 0.0 0.0 -1.987846675914698e-16 0.12782129050090826 8.805217767119297 2.243668028138315 1.4192816187290276 7.679957029364332e-16 -2.1963116212837336e-15 0.0 0.0 5.963540027744094e-16 -34.21145899751331 23.257569413088177 67.32521371034126 -115.8176908577 1.281047723987144e-14 -5.248849546830537e-16 0.0 0.0 6.3611093629270335e-15 0.0 0.0 5.963540027744094e-16 -20.168992904619348 -2.0100834469455977 -12.149107152387774 0.0 0.0 5.963540027744094e-16 3.7731388627076234 -41.5726609746024 -44.337220121441725 135.51139018436808 2.4080400503727344e-15 -5.887703749588532e-15 0.0 0.0 0.0 0.0 0.0 -1.987846675914698e-16 -0.031018799780761438 -2.1014985069240137 -5.473363359912579 -1.7358934394226526 20.44447839357679 1.0703003780365274 0.0 0.0 -3.9756933518293955e-16
0.0 0.0 830.830662637835 32.02860996885154 -4.307564258740989 5.623868400283509 0.0 0.0 0.0 -0.10208485122171354 -6.982054278453144 -1.7597164274085957 -0.3921121355291221 23.190897909826298 0.3577268422451017 0.0 0.0 -3.975693351829396e-16 0.0 0.0 0.0 0.13139546672049035 8.88689830901053 2.2004205138912005 1.3676537839322425 4.165205780551709e-16 1.5854191889778753e-15 0.0 0.0 2.981770013872047e-16 -34.0577639506593 22.99769370730873 67.35242480490943 -115.940159744885 1.0785531325268599e-14 -6.747381961925797e-15 0.0 0.0 0.0 0.0 0.0 2.981770013872047e-16 -20.190149663521797 -2.212500381130842 -12.216126383866035 0.0 0.0 2.981770013872047e-16 3.6326015508180207 -41.220774061491724 -44.284131825904915 135.5477519125611 7.218515000778482e-15 -1.766540268795472e-14 0.0 0.0 0.0 0.0 0.0 0.0 -0.033569683255648144 -2.2426485098874163 -5.646574440008005 -1.7944631002043776 20.436656499936223 1.1399695366610272 -6.3611093629270335e-15 6.620859447075238e-32 -1.1927080055488188e-15
